<svg id="instagram" xmlns="http://www.w3.org/2000/svg" width="31.918" height="31.918" viewBox="0 0 31.918 31.918">
  <defs>
    <style>
      .cls-1 {
        fill: #fff;
        fill-rule: evenodd;
      }
    </style>
  </defs>
  <path id="Path_2" data-name="Path 2" class="cls-1" d="M97.555,83.438H86.607a3.173,3.173,0,0,0-3.169,3.169V97.554a3.173,3.173,0,0,0,3.169,3.169H97.555a3.173,3.173,0,0,0,3.169-3.169V86.607A3.173,3.173,0,0,0,97.555,83.438ZM92.081,97.771a5.69,5.69,0,1,1,5.691-5.691A5.7,5.7,0,0,1,92.081,97.771Zm5.874-10.2A1.346,1.346,0,1,1,99.3,86.221,1.348,1.348,0,0,1,97.954,87.567Z" transform="translate(-76.122 -76.121)"/>
  <path id="Path_3" data-name="Path 3" class="cls-1" d="M147.809,144.531a3.286,3.286,0,1,0,3.286,3.285A3.29,3.29,0,0,0,147.809,144.531Z" transform="translate(-131.85 -131.857)"/>
  <path id="Path_4" data-name="Path 4" class="cls-1" d="M0,0V31.918H31.918V0ZM27.006,21.433a5.579,5.579,0,0,1-5.573,5.574H10.485a5.579,5.579,0,0,1-5.574-5.574V10.485a5.58,5.58,0,0,1,5.574-5.574H21.433a5.579,5.579,0,0,1,5.573,5.574Z"/>
</svg>
